<svg xmlns="http://www.w3.org/2000/svg" width="40" height="40" viewBox="0 0 40 40" fill="none">
    <path d="M20.0273 39.9999C8.99679 40.0302 0.0302132 31.1003 7.61621e-05 20.0547C-0.0300608 9.0091 8.88743 0.0302528 19.918 7.463e-05C23.3283 -0.00925318 26.6841 0.85596 29.6658 2.51325L32.2506 3.94989L29.6809 5.41655C22.0966 9.72875 19.4394 19.3811 23.7457 26.9758C25.4036 29.8996 27.949 32.2183 31.0124 33.5949L33.7104 34.8133L31.2687 36.48C27.964 38.7662 24.0439 39.9937 20.0273 39.9999ZM20.0273 3.33324C10.8351 3.33324 3.3834 10.7952 3.3834 19.9999C3.3834 29.2047 10.8351 36.6666 20.0273 36.6666C22.4163 36.667 24.7764 36.1448 26.9429 35.1366C18.1359 29.3136 15.7105 17.4439 21.5256 8.62493C22.6127 6.97618 23.9483 5.50599 25.4849 4.26665C23.7324 3.64537 21.8864 3.32963 20.0273 3.33324ZM32.1774 16.1666L34.1197 20.0549L36.0637 16.1666L39.9468 14.2216L36.0637 12.2749L34.1214 8.38656L32.1774 12.2749L28.296 14.2199L32.1774 16.1666ZM38.3356 28.3333C37.4164 28.3333 36.6712 29.0795 36.6712 30C36.6712 30.9204 37.4164 31.6667 38.3356 31.6667C39.2548 31.6667 40 30.9204 40 30C40 29.0795 39.2548 28.3333 38.3356 28.3333ZM28.3493 21.6666C27.4301 21.6666 26.6849 22.4128 26.6849 23.3333C26.6849 24.2538 27.4301 25 28.3493 25C29.2685 25 30.0137 24.2538 30.0137 23.3333C30.0137 22.4128 29.2685 21.6666 28.3493 21.6666Z" fill="black"/>
</svg>