<svg xmlns="http://www.w3.org/2000/svg" width="40" height="40" viewBox="0 0 40 40" fill="none">
    <path d="M37.6214 17.5H32.3527C32.0286 15.9334 31.4041 14.4439 30.5135 13.1133L34.2455 9.39333C34.7024 8.92183 34.9552 8.29032 34.9494 7.63483C34.9437 6.97934 34.68 6.35231 34.2149 5.88879C33.7499 5.42527 33.1209 5.16234 32.4632 5.15665C31.8056 5.15095 31.1721 5.40294 30.699 5.85833L26.9737 9.57833C25.6388 8.69056 24.1445 8.06805 22.5728 7.745V2.5C22.5728 1.83696 22.3086 1.20107 21.8382 0.732233C21.3679 0.263392 20.7299 0 20.0647 0C19.3995 0 18.7616 0.263392 18.2912 0.732233C17.8209 1.20107 17.5566 1.83696 17.5566 2.5V7.75167C15.985 8.07472 14.4907 8.69722 13.1558 9.585L9.42374 5.85833C8.95071 5.40294 8.31716 5.15095 7.65954 5.15665C7.00193 5.16234 6.37287 5.42527 5.90785 5.88879C5.44283 6.35231 5.17905 6.97934 5.17334 7.63483C5.16763 8.29032 5.42043 8.92183 5.8773 9.39333L9.60934 13.1133C8.71869 14.4439 8.09417 15.9334 7.77007 17.5H2.50809C1.8429 17.5 1.20496 17.7634 0.734603 18.2322C0.264245 18.7011 0 19.337 0 20C0 20.663 0.264245 21.2989 0.734603 21.7678C1.20496 22.2366 1.8429 22.5 2.50809 22.5H7.77676C8.10085 24.0666 8.72537 25.5561 9.61603 26.8867L5.8773 30.6067C5.42043 31.0782 5.16763 31.7097 5.17334 32.3652C5.17905 33.0207 5.44283 33.6477 5.90785 34.1112C6.37287 34.5747 7.00193 34.8377 7.65954 34.8434C8.31716 34.849 8.95071 34.5971 9.42374 34.1417L13.1558 30.4217C14.4907 31.3094 15.985 31.932 17.5566 32.255V37.5C17.5566 38.163 17.8209 38.7989 18.2912 39.2678C18.7616 39.7366 19.3995 40 20.0647 40C20.7299 40 21.3679 39.7366 21.8382 39.2678C22.3086 38.7989 22.5728 38.163 22.5728 37.5V32.2483C24.1445 31.9253 25.6388 31.3028 26.9737 30.415L30.7057 34.135C31.1788 34.5904 31.8123 34.8424 32.4699 34.8367C33.1275 34.831 33.7566 34.5681 34.2216 34.1045C34.6866 33.641 34.9504 33.014 34.9561 32.3585C34.9619 31.703 34.709 31.0715 34.2522 30.6L30.5201 26.88C31.4108 25.5494 32.0353 24.0599 32.3594 22.4933H37.6214C38.2633 22.4603 38.868 22.1828 39.3106 21.7182C39.7532 21.2536 40 20.6374 40 19.9967C40 19.356 39.7532 18.7397 39.3106 18.2751C38.868 17.8105 38.2633 17.5331 37.6214 17.5ZM20.0647 27.5C18.0692 27.5 16.1553 26.7098 14.7443 25.3033C13.3332 23.8968 12.5405 21.9891 12.5405 20C12.5405 18.0109 13.3332 16.1032 14.7443 14.6967C16.1553 13.2902 18.0692 12.5 20.0647 12.5C22.0603 12.5 23.9741 13.2902 25.3852 14.6967C26.7963 16.1032 27.589 18.0109 27.589 20C27.589 21.9891 26.7963 23.8968 25.3852 25.3033C23.9741 26.7098 22.0603 27.5 20.0647 27.5Z" fill="#ADAFD6"/>
</svg>